<?xml version="1.0" encoding="UTF-8"?>
<!-- Built from phosphor-icons/core (MIT). Regenerate with scripts/build-icon-sprite.sh -->
<svg xmlns="http://www.w3.org/2000/svg" style="display:none">
  <symbol id="magnifying-glass" viewBox="0 0 256 256">
    <rect width="256" height="256" fill="none"/><circle cx="112" cy="112" r="80" fill="none" stroke="currentColor" stroke-linecap="round" stroke-linejoin="round" stroke-width="16"/><line x1="168.57" y1="168.57" x2="224" y2="224" fill="none" stroke="currentColor" stroke-linecap="round" stroke-linejoin="round" stroke-width="16"/>
  </symbol>
  <symbol id="code" viewBox="0 0 256 256">
    <rect width="256" height="256" fill="none"/><polyline points="64 88 16 128 64 168" fill="none" stroke="currentColor" stroke-linecap="round" stroke-linejoin="round" stroke-width="16"/><polyline points="192 88 240 128 192 168" fill="none" stroke="currentColor" stroke-linecap="round" stroke-linejoin="round" stroke-width="16"/><line x1="160" y1="40" x2="96" y2="216" fill="none" stroke="currentColor" stroke-linecap="round" stroke-linejoin="round" stroke-width="16"/>
  </symbol>
  <symbol id="graph" viewBox="0 0 256 256">
    <rect width="256" height="256" fill="none"/><circle cx="128" cy="128" r="24" fill="none" stroke="currentColor" stroke-linecap="round" stroke-linejoin="round" stroke-width="16"/><circle cx="96" cy="56" r="24" fill="none" stroke="currentColor" stroke-linecap="round" stroke-linejoin="round" stroke-width="16"/><circle cx="200" cy="104" r="24" fill="none" stroke="currentColor" stroke-linecap="round" stroke-linejoin="round" stroke-width="16"/><circle cx="200" cy="184" r="24" fill="none" stroke="currentColor" stroke-linecap="round" stroke-linejoin="round" stroke-width="16"/><circle cx="56" cy="192" r="24" fill="none" stroke="currentColor" stroke-linecap="round" stroke-linejoin="round" stroke-width="16"/><line x1="118.25" y1="106.07" x2="105.75" y2="77.93" fill="none" stroke="currentColor" stroke-linecap="round" stroke-linejoin="round" stroke-width="16"/><line x1="177.23" y1="111.59" x2="150.77" y2="120.41" fill="none" stroke="currentColor" stroke-linecap="round" stroke-linejoin="round" stroke-width="16"/><line x1="181.06" y1="169.27" x2="146.94" y2="142.73" fill="none" stroke="currentColor" stroke-linecap="round" stroke-linejoin="round" stroke-width="16"/><line x1="110.06" y1="143.94" x2="73.94" y2="176.06" fill="none" stroke="currentColor" stroke-linecap="round" stroke-linejoin="round" stroke-width="16"/>
  </symbol>
  <symbol id="cube-focus" viewBox="0 0 256 256">
    <rect width="256" height="256" fill="none"/><polyline points="184 48 224 48 224 88" fill="none" stroke="currentColor" stroke-linecap="round" stroke-linejoin="round" stroke-width="16"/><polyline points="72 208 32 208 32 168" fill="none" stroke="currentColor" stroke-linecap="round" stroke-linejoin="round" stroke-width="16"/><polyline points="224 168 224 208 184 208" fill="none" stroke="currentColor" stroke-linecap="round" stroke-linejoin="round" stroke-width="16"/><polyline points="32 88 32 48 72 48" fill="none" stroke="currentColor" stroke-linecap="round" stroke-linejoin="round" stroke-width="16"/><polygon points="128 64 184 96 184 160 128 192 72 160 72 96 128 64" fill="none" stroke="currentColor" stroke-linecap="round" stroke-linejoin="round" stroke-width="16"/><polyline points="72 96 128 128 184 96" fill="none" stroke="currentColor" stroke-linecap="round" stroke-linejoin="round" stroke-width="16"/><line x1="128" y1="128" x2="128" y2="192" fill="none" stroke="currentColor" stroke-linecap="round" stroke-linejoin="round" stroke-width="16"/>
  </symbol>
  <symbol id="cpu" viewBox="0 0 256 256">
    <rect width="256" height="256" fill="none"/><rect x="104" y="104" width="48" height="48" fill="none" stroke="currentColor" stroke-linecap="round" stroke-linejoin="round" stroke-width="16"/><rect x="48" y="48" width="160" height="160" rx="8" fill="none" stroke="currentColor" stroke-linecap="round" stroke-linejoin="round" stroke-width="16"/><line x1="208" y1="104" x2="232" y2="104" fill="none" stroke="currentColor" stroke-linecap="round" stroke-linejoin="round" stroke-width="16"/><line x1="208" y1="152" x2="232" y2="152" fill="none" stroke="currentColor" stroke-linecap="round" stroke-linejoin="round" stroke-width="16"/><line x1="24" y1="104" x2="48" y2="104" fill="none" stroke="currentColor" stroke-linecap="round" stroke-linejoin="round" stroke-width="16"/><line x1="24" y1="152" x2="48" y2="152" fill="none" stroke="currentColor" stroke-linecap="round" stroke-linejoin="round" stroke-width="16"/><line x1="152" y1="208" x2="152" y2="232" fill="none" stroke="currentColor" stroke-linecap="round" stroke-linejoin="round" stroke-width="16"/><line x1="104" y1="208" x2="104" y2="232" fill="none" stroke="currentColor" stroke-linecap="round" stroke-linejoin="round" stroke-width="16"/><line x1="152" y1="24" x2="152" y2="48" fill="none" stroke="currentColor" stroke-linecap="round" stroke-linejoin="round" stroke-width="16"/><line x1="104" y1="24" x2="104" y2="48" fill="none" stroke="currentColor" stroke-linecap="round" stroke-linejoin="round" stroke-width="16"/>
  </symbol>
  <symbol id="lightning" viewBox="0 0 256 256">
    <rect width="256" height="256" fill="none"/><polygon points="160 16 144 96 208 120 96 240 112 160 48 136 160 16" fill="none" stroke="currentColor" stroke-linecap="round" stroke-linejoin="round" stroke-width="16"/>
  </symbol>
  <symbol id="terminal-window" viewBox="0 0 256 256">
    <rect width="256" height="256" fill="none"/><polyline points="80 96 120 128 80 160" fill="none" stroke="currentColor" stroke-linecap="round" stroke-linejoin="round" stroke-width="16"/><line x1="136" y1="160" x2="176" y2="160" fill="none" stroke="currentColor" stroke-linecap="round" stroke-linejoin="round" stroke-width="16"/><rect x="32" y="48" width="192" height="160" rx="8" fill="none" stroke="currentColor" stroke-linecap="round" stroke-linejoin="round" stroke-width="16"/>
  </symbol>
  <symbol id="package" viewBox="0 0 256 256">
    <rect width="256" height="256" fill="none"/><line x1="128" y1="129.09" x2="128" y2="231.97" fill="none" stroke="currentColor" stroke-linecap="round" stroke-linejoin="round" stroke-width="16"/><polyline points="32.7 76.92 128 129.08 223.3 76.92" fill="none" stroke="currentColor" stroke-linecap="round" stroke-linejoin="round" stroke-width="16"/><path d="M219.84,182.84l-88,48.18a8,8,0,0,1-7.68,0l-88-48.18a8,8,0,0,1-4.16-7V80.18a8,8,0,0,1,4.16-7l88-48.18a8,8,0,0,1,7.68,0l88,48.18a8,8,0,0,1,4.16,7v95.64A8,8,0,0,1,219.84,182.84Z" fill="none" stroke="currentColor" stroke-linecap="round" stroke-linejoin="round" stroke-width="16"/><polyline points="81.56 48.31 176 100 176 152" fill="none" stroke="currentColor" stroke-linecap="round" stroke-linejoin="round" stroke-width="16"/>
  </symbol>
  <symbol id="stack" viewBox="0 0 256 256">
    <rect width="256" height="256" fill="none"/><polyline points="32 176 128 232 224 176" fill="none" stroke="currentColor" stroke-linecap="round" stroke-linejoin="round" stroke-width="16"/><polyline points="32 128 128 184 224 128" fill="none" stroke="currentColor" stroke-linecap="round" stroke-linejoin="round" stroke-width="16"/><polygon points="32 80 128 136 224 80 128 24 32 80" fill="none" stroke="currentColor" stroke-linecap="round" stroke-linejoin="round" stroke-width="16"/>
  </symbol>
  <symbol id="arrow-right" viewBox="0 0 256 256">
    <rect width="256" height="256" fill="none"/><line x1="40" y1="128" x2="216" y2="128" fill="none" stroke="currentColor" stroke-linecap="round" stroke-linejoin="round" stroke-width="16"/><polyline points="144 56 216 128 144 200" fill="none" stroke="currentColor" stroke-linecap="round" stroke-linejoin="round" stroke-width="16"/>
  </symbol>
  <symbol id="arrow-up-right" viewBox="0 0 256 256">
    <rect width="256" height="256" fill="none"/><line x1="64" y1="192" x2="192" y2="64" fill="none" stroke="currentColor" stroke-linecap="round" stroke-linejoin="round" stroke-width="16"/><polyline points="88 64 192 64 192 168" fill="none" stroke="currentColor" stroke-linecap="round" stroke-linejoin="round" stroke-width="16"/>
  </symbol>
  <symbol id="check" viewBox="0 0 256 256">
    <rect width="256" height="256" fill="none"/><polyline points="40 144 96 200 224 72" fill="none" stroke="currentColor" stroke-linecap="round" stroke-linejoin="round" stroke-width="16"/>
  </symbol>
  <symbol id="x" viewBox="0 0 256 256">
    <rect width="256" height="256" fill="none"/><line x1="200" y1="56" x2="56" y2="200" stroke="currentColor" stroke-linecap="round" stroke-linejoin="round" stroke-width="16"/><line x1="200" y1="200" x2="56" y2="56" stroke="currentColor" stroke-linecap="round" stroke-linejoin="round" stroke-width="16"/>
  </symbol>
  <symbol id="circle" viewBox="0 0 256 256">
    <rect width="256" height="256" fill="none"/><circle cx="128" cy="128" r="96" fill="none" stroke="currentColor" stroke-linecap="round" stroke-linejoin="round" stroke-width="16"/>
  </symbol>
  <symbol id="squares-four" viewBox="0 0 256 256">
    <rect width="256" height="256" fill="none"/><rect x="48" y="48" width="64" height="64" rx="8" fill="none" stroke="currentColor" stroke-linecap="round" stroke-linejoin="round" stroke-width="16"/><rect x="144" y="48" width="64" height="64" rx="8" fill="none" stroke="currentColor" stroke-linecap="round" stroke-linejoin="round" stroke-width="16"/><rect x="48" y="144" width="64" height="64" rx="8" fill="none" stroke="currentColor" stroke-linecap="round" stroke-linejoin="round" stroke-width="16"/><rect x="144" y="144" width="64" height="64" rx="8" fill="none" stroke="currentColor" stroke-linecap="round" stroke-linejoin="round" stroke-width="16"/>
  </symbol>
  <symbol id="circuitry" viewBox="0 0 256 256">
    <rect width="256" height="256" fill="none"/><circle cx="168" cy="104" r="16" fill="none" stroke="currentColor" stroke-linecap="round" stroke-linejoin="round" stroke-width="16"/><circle cx="88" cy="168" r="16" fill="none" stroke="currentColor" stroke-linecap="round" stroke-linejoin="round" stroke-width="16"/><polyline points="152 216 152 160 88 96 88 40" fill="none" stroke="currentColor" stroke-linecap="round" stroke-linejoin="round" stroke-width="16"/><line x1="88" y1="152" x2="88" y2="96" fill="none" stroke="currentColor" stroke-linecap="round" stroke-linejoin="round" stroke-width="16"/><rect x="40" y="40" width="176" height="176" rx="8" fill="none" stroke="currentColor" stroke-linecap="round" stroke-linejoin="round" stroke-width="16"/><polyline points="136 40 136 72 156.69 92.69" fill="none" stroke="currentColor" stroke-linecap="round" stroke-linejoin="round" stroke-width="16"/>
  </symbol>
  <symbol id="compass-tool" viewBox="0 0 256 256">
    <rect width="256" height="256" fill="none"/><circle cx="128" cy="80" r="32" fill="none" stroke="currentColor" stroke-linecap="round" stroke-linejoin="round" stroke-width="16"/><line x1="128" y1="48" x2="128" y2="24" fill="none" stroke="currentColor" stroke-linecap="round" stroke-linejoin="round" stroke-width="16"/><line x1="141" y1="109.25" x2="192" y2="224" fill="none" stroke="currentColor" stroke-linecap="round" stroke-linejoin="round" stroke-width="16"/><line x1="64" y1="224" x2="115" y2="109.25" fill="none" stroke="currentColor" stroke-linecap="round" stroke-linejoin="round" stroke-width="16"/><path d="M208,120c-14.57,28.49-45.8,48-80,48a87.71,87.71,0,0,1-35.75-7.56" fill="none" stroke="currentColor" stroke-linecap="round" stroke-linejoin="round" stroke-width="16"/>
  </symbol>
  <symbol id="book-open" viewBox="0 0 256 256">
    <rect width="256" height="256" fill="none"/><path d="M128,88a32,32,0,0,1,32-32h72V200H160a32,32,0,0,0-32,32" fill="none" stroke="currentColor" stroke-linecap="round" stroke-linejoin="round" stroke-width="16"/><path d="M24,200H96a32,32,0,0,1,32,32V88A32,32,0,0,0,96,56H24Z" fill="none" stroke="currentColor" stroke-linecap="round" stroke-linejoin="round" stroke-width="16"/>
  </symbol>
  <symbol id="gauge" viewBox="0 0 256 256">
    <rect width="256" height="256" fill="none"/><path d="M24,176V153.13C24,95.65,70.15,48.2,127.63,48A104,104,0,0,1,232,152v24a8,8,0,0,1-8,8H32A8,8,0,0,1,24,176Z" fill="none" stroke="currentColor" stroke-linecap="round" stroke-linejoin="round" stroke-width="16"/><line x1="128" y1="48" x2="128" y2="80" fill="none" stroke="currentColor" stroke-linecap="round" stroke-linejoin="round" stroke-width="16"/><line x1="104" y1="184" x2="168" y2="96" fill="none" stroke="currentColor" stroke-linecap="round" stroke-linejoin="round" stroke-width="16"/><line x1="200" y1="136" x2="230.78" y2="136" fill="none" stroke="currentColor" stroke-linecap="round" stroke-linejoin="round" stroke-width="16"/><line x1="25.39" y1="136" x2="56" y2="136" fill="none" stroke="currentColor" stroke-linecap="round" stroke-linejoin="round" stroke-width="16"/>
  </symbol>
  <symbol id="git-branch" viewBox="0 0 256 256">
    <rect width="256" height="256" fill="none"/><path d="M80,168V144a16,16,0,0,1,16-16h88a16,16,0,0,0,16-16V88" fill="none" stroke="currentColor" stroke-linecap="round" stroke-linejoin="round" stroke-width="16"/><line x1="80" y1="88" x2="80" y2="168" fill="none" stroke="currentColor" stroke-linecap="round" stroke-linejoin="round" stroke-width="16"/><circle cx="80" cy="64" r="24" fill="none" stroke="currentColor" stroke-linecap="round" stroke-linejoin="round" stroke-width="16"/><circle cx="200" cy="64" r="24" fill="none" stroke="currentColor" stroke-linecap="round" stroke-linejoin="round" stroke-width="16"/><circle cx="80" cy="192" r="24" fill="none" stroke="currentColor" stroke-linecap="round" stroke-linejoin="round" stroke-width="16"/>
  </symbol>
  <symbol id="sparkle-fill" viewBox="0 0 256 256">
    <rect width="256" height="256" fill="none"/><path d="M208,144a15.78,15.78,0,0,1-10.42,14.94L146,178l-19,51.62a15.92,15.92,0,0,1-29.88,0L78,178l-51.62-19a15.92,15.92,0,0,1,0-29.88L78,110l19-51.62a15.92,15.92,0,0,1,29.88,0L146,110l51.62,19A15.78,15.78,0,0,1,208,144ZM152,48h16V64a8,8,0,0,0,16,0V48h16a8,8,0,0,0,0-16H184V16a8,8,0,0,0-16,0V32H152a8,8,0,0,0,0,16Zm88,32h-8V72a8,8,0,0,0-16,0v8h-8a8,8,0,0,0,0,16h8v8a8,8,0,0,0,16,0V96h8a8,8,0,0,0,0-16Z"/>
  </symbol>
  <symbol id="shield-check-fill" viewBox="0 0 256 256">
    <rect width="256" height="256" fill="none"/><path d="M208,40H48A16,16,0,0,0,32,56v56c0,52.72,25.52,84.67,46.93,102.19,23.06,18.86,46,25.26,47,25.53a8,8,0,0,0,4.2,0c1-.27,23.91-6.67,47-25.53C198.48,196.67,224,164.72,224,112V56A16,16,0,0,0,208,40Zm-34.32,69.66-56,56a8,8,0,0,1-11.32,0l-24-24a8,8,0,0,1,11.32-11.32L112,148.69l50.34-50.35a8,8,0,0,1,11.32,11.32Z"/>
  </symbol>
  <symbol id="check-circle-fill" viewBox="0 0 256 256">
    <rect width="256" height="256" fill="none"/><path d="M128,24A104,104,0,1,0,232,128,104.11,104.11,0,0,0,128,24Zm45.66,85.66-56,56a8,8,0,0,1-11.32,0l-24-24a8,8,0,0,1,11.32-11.32L112,148.69l50.34-50.35a8,8,0,0,1,11.32,11.32Z"/>
  </symbol>
</svg>
